<svg xmlns="http://www.w3.org/2000/svg" width="144.057" height="29.269" viewBox="0 0 144.057 29.269">
  <g id="logo" transform="translate(-1404.607 -773.554)">
    <path id="Path_2" data-name="Path 2" d="M7.168-30.652,9.9-38.35H9.96l2.644,7.7ZM9.9-49.448-.324-22.543H4.318l1.645-4.672h7.845L15.4-22.543h4.789L9.96-49.448Zm25,12.978h4.466a8.456,8.456,0,0,0-1-3.232,7.86,7.86,0,0,0-2.013-2.365A8.868,8.868,0,0,0,33.6-43.521a10.57,10.57,0,0,0-3.276-.5,10.6,10.6,0,0,0-4.334.852,9.27,9.27,0,0,0-3.247,2.351,10.481,10.481,0,0,0-2.027,3.511,13.108,13.108,0,0,0-.705,4.363,12.67,12.67,0,0,0,.705,4.275,10.21,10.21,0,0,0,2.027,3.452,9.286,9.286,0,0,0,3.247,2.306,10.757,10.757,0,0,0,4.334.837,10.334,10.334,0,0,0,3.555-.588,8.243,8.243,0,0,0,2.821-1.7,8.515,8.515,0,0,0,1.939-2.7,10.665,10.665,0,0,0,.911-3.555H35.081a5.979,5.979,0,0,1-1.454,3.408,4.268,4.268,0,0,1-3.305,1.293,5.385,5.385,0,0,1-2.644-.6,5.045,5.045,0,0,1-1.763-1.6,6.948,6.948,0,0,1-.984-2.248,10.679,10.679,0,0,1-.309-2.571,11.48,11.48,0,0,1,.309-2.674,7.081,7.081,0,0,1,.984-2.306,4.993,4.993,0,0,1,1.763-1.616,5.385,5.385,0,0,1,2.644-.6,4.8,4.8,0,0,1,1.631.279,4.743,4.743,0,0,1,1.4.779,4.637,4.637,0,0,1,1.028,1.161A3.767,3.767,0,0,1,34.9-36.47Zm6.7-7.052v20.979h4.319v-14.72h.059l5.142,14.72h3.555L59.82-37.41h.059v14.867H64.2V-43.521H57.7L53.063-29.1H53L48.1-43.521Zm25.562,0v20.979H83.091v-3.878H71.779v-5.142H81.945v-3.585H71.779v-4.5H82.856v-3.878Z" transform="translate(1404.931 823.001)" fill="#fff"/>
    <text id="gallery" transform="translate(1488.852 797.822)" fill="#fff" font-size="17" font-family="OriyaMN-Bold, Oriya MN" font-weight="700"><tspan x="0" y="0">gallery</tspan></text>
    <g id="arrow" transform="translate(1548.664 775.73) rotate(90)">
      <rect id="Rectangle_10" data-name="Rectangle 10" width="9.025" height="9.025" transform="translate(2.329 0)" fill="#c23f81"/>
      <rect id="Rectangle_11" data-name="Rectangle 11" width="9.316" height="9.316" transform="translate(0 2.038)" fill="#313131"/>
    </g>
  </g>
</svg>
