<svg xmlns="http://www.w3.org/2000/svg" width="197.392" height="38.7"><path data-name="Path 2" d="M10.266 25.753l3.744-10.548h.081l3.623 10.548zM14.01-.001L0 36.865h6.361l2.255-6.4h10.749l2.174 6.4h6.562L14.091-.001zm34.261 17.783h6.119a11.586 11.586 0 00-1.366-4.429 10.77 10.77 0 00-2.758-3.241 12.152 12.152 0 00-3.784-1.993 14.483 14.483 0 00-4.489-.684 14.519 14.519 0 00-5.938 1.168 12.7 12.7 0 00-4.449 3.221 14.361 14.361 0 00-2.782 4.811 17.961 17.961 0 00-.966 5.979 17.361 17.361 0 00.966 5.858 13.99 13.99 0 002.778 4.731 12.724 12.724 0 004.449 3.16 14.74 14.74 0 005.938 1.147 14.16 14.16 0 004.871-.805 11.3 11.3 0 003.864-2.336 11.668 11.668 0 002.657-3.7 14.613 14.613 0 001.248-4.871h-6.116a8.192 8.192 0 01-1.993 4.67 5.849 5.849 0 01-4.529 1.771 7.379 7.379 0 01-3.623-.825 6.913 6.913 0 01-2.416-2.194 9.52 9.52 0 01-1.349-3.08 14.633 14.633 0 01-.423-3.523 15.73 15.73 0 01.423-3.664 9.7 9.7 0 011.349-3.16 6.841 6.841 0 012.416-2.214 7.379 7.379 0 013.623-.825 6.571 6.571 0 012.234.382 6.5 6.5 0 011.912 1.067 6.354 6.354 0 011.409 1.59 5.161 5.161 0 01.725 1.989zM57.45 8.12v28.745h5.918v-20.17h.081l7.045 20.17h4.871l7.045-20.371h.081v20.371h5.918V8.12h-8.9l-6.357 19.767h-.081L66.348 8.12zm35.026 0v28.745h21.821v-5.318h-15.5v-7.045h13.927V19.59H98.798v-6.16h15.178V8.116z" fill="#c23f81"/><text transform="translate(115.435 32.7)" fill="#74667e" font-size="23" font-family="OriyaMN-Bold, Oriya MN" font-weight="700"><tspan x="0" y="0">gallery</tspan></text><path data-name="Rectangle 10" fill="#c23f81" d="M197.392 6.173v12.366h-12.366V6.173z"/><path data-name="Rectangle 11" fill="#fff" d="M194.6 2.982v12.765h-12.765V2.982z"/></svg>