<svg xmlns="http://www.w3.org/2000/svg" width="144.057" height="29.269"><path data-name="Path 2" d="M7.492 18.795l2.732-7.698h.06l2.644 7.7zM10.224-.001L0 26.904h4.642l1.645-4.672h7.845l1.592 4.672h4.789L10.284-.001zm25 12.978h4.466a8.456 8.456 0 00-1-3.232 7.86 7.86 0 00-2.013-2.365 8.868 8.868 0 00-2.753-1.454 10.57 10.57 0 00-3.276-.5 10.6 10.6 0 00-4.334.852 9.27 9.27 0 00-3.247 2.351 10.481 10.481 0 00-2.027 3.511 13.108 13.108 0 00-.705 4.363 12.67 12.67 0 00.705 4.275 10.21 10.21 0 002.027 3.452 9.286 9.286 0 003.247 2.306 10.757 10.757 0 004.334.837 10.334 10.334 0 003.555-.588 8.243 8.243 0 002.821-1.7 8.515 8.515 0 001.939-2.7 10.665 10.665 0 00.911-3.555h-4.469a5.979 5.979 0 01-1.454 3.408 4.268 4.268 0 01-3.305 1.293 5.385 5.385 0 01-2.644-.6 5.045 5.045 0 01-1.763-1.6 6.948 6.948 0 01-.984-2.248 10.679 10.679 0 01-.309-2.571 11.48 11.48 0 01.309-2.674 7.081 7.081 0 01.984-2.306 4.993 4.993 0 011.763-1.616 5.385 5.385 0 012.644-.6 4.8 4.8 0 011.631.279 4.743 4.743 0 011.4.779 4.637 4.637 0 011.028 1.161 3.767 3.767 0 01.519 1.442zm6.7-7.052v20.979h4.319v-14.72h.059l5.142 14.72h3.555l5.145-14.867h.059v14.867h4.321V5.926h-6.5l-4.637 14.421h-.063l-4.9-14.421zm25.562 0v20.979h15.929v-3.878H72.103v-5.142h10.166v-3.585H72.103v-4.5H83.18V5.921z" fill="#fff"/><text transform="translate(84.245 24.268)" fill="#fff" font-size="17" font-family="OriyaMN-Bold, Oriya MN" font-weight="700"><tspan x="0" y="0">gallery</tspan></text><path data-name="Rectangle 10" fill="#c23f81" d="M144.057 4.505v9.025h-9.025V4.505z"/><path data-name="Rectangle 11" fill="#313131" d="M142.019 2.176v9.316h-9.316V2.176z"/></svg>